<?xml version="1.0" encoding="UTF-8" standalone="no"?><!DOCTYPE svg PUBLIC "-//W3C//DTD SVG 1.1//EN" "http://www.w3.org/Graphics/SVG/1.1/DTD/svg11.dtd"><svg width="100%" height="100%" viewBox="0 0 3800 1000" version="1.1" xmlns="http://www.w3.org/2000/svg" xmlns:xlink="http://www.w3.org/1999/xlink" xml:space="preserve" xmlns:serif="http://www.serif.com/" style="fill-rule:evenodd;clip-rule:evenodd;stroke-linejoin:round;stroke-miterlimit:2;"><g><circle cx="547.191" cy="495.98" r="479.504" style="fill:url(#_Linear1);"/><path d="M231.293,535.731l146.592,-251.766c3.666,-6.296 10.383,-10.189 17.668,-10.242c7.285,-0.052 14.057,3.744 17.813,9.987l35.284,58.641l80.797,-136.579c3.71,-6.272 10.456,-10.12 17.744,-10.12c7.287,0 14.033,3.848 17.744,10.12l80.796,136.579l35.284,-58.641c3.757,-6.243 10.528,-10.039 17.814,-9.987c7.285,0.052 14.002,3.946 17.667,10.242l146.591,251.766c5.733,9.839 2.402,22.46 -7.44,28.19c-9.836,5.729 -22.457,2.398 -28.19,-7.441l-63.08,-108.314c0,0 -163.445,279.99 -199.684,338.014c-3.605,5.773 -11.832,10.131 -17.75,10.128c-5.918,-0.003 -14.158,-4.366 -17.761,-10.147c-36.159,-58.018 -199.195,-337.959 -199.195,-337.959l-63.062,108.279c-5.73,9.838 -18.351,13.17 -28.19,7.441c-9.839,-5.729 -13.17,-18.351 -7.441,-28.19Zm315.669,199.394l193.652,-327.799c-23.332,-40.068 -42.226,-72.517 -42.226,-72.517l-133.484,221.848l-0.047,0.078c-1.747,2.907 -4.165,5.319 -7.075,7.06c-6.528,3.904 -14.655,3.904 -21.182,0c-2.911,-1.741 -5.328,-4.154 -7.075,-7.06l-0.047,-0.078c-2.834,-4.71 -133.484,-221.848 -133.484,-221.848l-42.23,72.528l193.199,327.787Zm0.229,-229.302l73.928,-124.097l-73.928,-124.968l-73.928,124.968l73.928,124.097Z" style="fill:#fff;"/><g><path d="M1094.078,510.654c-5.217,0 -9.39,-1.174 -12.52,-3.521c-3.13,-2.348 -4.956,-5.478 -5.478,-9.39c-0.522,-3.913 0.261,-8.347 2.348,-13.303l106.033,-237.889c2.608,-6.26 5.934,-10.695 9.977,-13.303c4.043,-2.608 8.543,-3.913 13.499,-3.913c4.695,0 9.064,1.304 13.107,3.913c4.043,2.608 7.369,7.043 9.977,13.303l106.033,237.889c2.348,4.956 3.261,9.456 2.739,13.499c-0.522,4.043 -2.217,7.173 -5.086,9.39c-2.869,2.217 -6.912,3.326 -12.129,3.326c-5.739,0 -10.303,-1.435 -13.694,-4.304c-3.391,-2.869 -6.391,-7.304 -8.999,-13.303l-27.389,-63.385l18.389,10.955l-166.679,0l17.998,-10.955l-26.997,63.385c-2.608,6.26 -5.478,10.76 -8.608,13.499c-3.13,2.739 -7.304,4.108 -12.52,4.108Zm113.076,-233.585l-59.081,140.073l-9.782,-9.39l138.117,0l-8.999,9.39l-59.472,-140.073l-0.783,0Z" style="fill:#5c5c5c;fill-rule:nonzero;"/><path d="M1411.785,510.654c-6.521,0 -11.542,-1.826 -15.064,-5.478c-3.521,-3.652 -5.282,-8.738 -5.282,-15.259l0,-237.107c0,-6.782 1.826,-11.934 5.478,-15.455c3.652,-3.521 8.738,-5.282 15.259,-5.282l93.512,0c29.736,0 52.69,7.043 68.863,21.128c16.172,14.086 24.258,34.04 24.258,59.864c0,16.694 -3.652,31.04 -10.955,43.039c-7.304,11.999 -17.933,21.128 -31.888,27.389c-13.955,6.26 -30.714,9.39 -50.278,9.39l3.521,-5.478l10.173,0c10.434,0 19.498,2.608 27.193,7.825c7.695,5.217 14.672,13.564 20.933,25.041l33.649,62.602c2.608,4.695 3.847,9.195 3.717,13.499c-0.13,4.304 -1.695,7.76 -4.695,10.369c-3,2.608 -7.238,3.913 -12.716,3.913c-5.739,0 -10.369,-1.239 -13.89,-3.717c-3.521,-2.478 -6.717,-6.195 -9.586,-11.151l-41.083,-75.905c-5.478,-10.173 -11.738,-17.02 -18.781,-20.541c-7.043,-3.521 -16.303,-5.282 -27.78,-5.282l-44.213,0l0,95.86c0,6.521 -1.695,11.608 -5.086,15.259c-3.391,3.652 -8.477,5.478 -15.259,5.478Zm20.346,-147.116l66.906,0c19.824,0 34.823,-4.173 44.995,-12.52c10.173,-8.347 15.259,-20.737 15.259,-37.17c0,-16.172 -5.086,-28.432 -15.259,-36.779c-10.173,-8.347 -25.171,-12.52 -44.995,-12.52l-66.906,0l0,98.99Z" style="fill:#5c5c5c;fill-rule:nonzero;"/><path d="M1686.062,507.916c-7.043,0 -12.455,-1.891 -16.237,-5.673c-3.782,-3.782 -5.673,-9.195 -5.673,-16.237l0,-232.02c0,-7.043 1.891,-12.455 5.673,-16.237c3.782,-3.782 9.195,-5.673 16.237,-5.673l93.121,0c19.042,0 35.279,2.869 48.712,8.608c13.433,5.739 23.737,13.955 30.91,24.65c7.173,10.695 10.76,23.606 10.76,38.735c0,16.694 -4.956,30.78 -14.868,42.257c-9.912,11.477 -23.345,19.172 -40.3,23.085l0,-5.869c19.302,2.608 34.431,9.847 45.387,21.715c10.955,11.868 16.433,27.323 16.433,46.365c0,24.519 -8.086,43.365 -24.258,56.538c-16.172,13.173 -38.866,19.759 -68.08,19.759l-97.816,0Zm17.216,-31.301l75.905,0c19.563,0 34.04,-3.847 43.43,-11.542c9.39,-7.695 14.086,-19.368 14.086,-35.018c0,-15.651 -4.695,-27.258 -14.086,-34.823c-9.39,-7.564 -23.867,-11.347 -43.43,-11.347l-75.905,0l0,92.73Zm0,-124.031l69.645,0c18.781,0 32.997,-3.782 42.648,-11.347c9.651,-7.564 14.477,-18.65 14.477,-33.258c0,-14.607 -4.826,-25.693 -14.477,-33.258c-9.651,-7.564 -23.867,-11.347 -42.648,-11.347l-69.645,0l0,89.208Z" style="fill:#5c5c5c;fill-rule:nonzero;"/><path d="M1960.73,507.916c-7.043,0 -12.455,-1.891 -16.237,-5.673c-3.782,-3.782 -5.673,-9.195 -5.673,-16.237l0,-232.02c0,-7.043 1.891,-12.455 5.673,-16.237c3.782,-3.782 9.195,-5.673 16.237,-5.673l142.812,0c5.478,0 9.651,1.369 12.52,4.108c2.869,2.739 4.304,6.717 4.304,11.934c0,5.478 -1.435,9.651 -4.304,12.52c-2.869,2.869 -7.043,4.304 -12.52,4.304l-125.596,0l0,86.47l116.988,0c5.739,0 9.977,1.435 12.716,4.304c2.739,2.869 4.108,6.912 4.108,12.129c0,5.478 -1.369,9.586 -4.108,12.325c-2.739,2.739 -6.978,4.108 -12.716,4.108l-116.988,0l0,90.773l125.596,0c5.478,0 9.651,1.435 12.52,4.304c2.869,2.869 4.304,6.912 4.304,12.129c0,5.478 -1.435,9.586 -4.304,12.325c-2.869,2.739 -7.043,4.108 -12.52,4.108l-142.812,0Z" style="fill:#5c5c5c;fill-rule:nonzero;"/><path d="M2261.221,510.654c-6.521,0 -11.542,-1.826 -15.064,-5.478c-3.521,-3.652 -5.282,-8.738 -5.282,-15.259l0,-223.804l-82.948,0c-5.478,0 -9.782,-1.5 -12.912,-4.5c-3.13,-3 -4.695,-7.238 -4.695,-12.716c0,-5.478 1.565,-9.651 4.695,-12.52c3.13,-2.869 7.434,-4.304 12.912,-4.304l206.197,0c5.739,0 10.173,1.435 13.303,4.304c3.13,2.869 4.695,7.043 4.695,12.52c0,5.478 -1.565,9.716 -4.695,12.716c-3.13,3 -7.564,4.5 -13.303,4.5l-82.948,0l0,223.804c0,6.521 -1.63,11.608 -4.891,15.259c-3.261,3.652 -8.282,5.478 -15.064,5.478Z" style="fill:#5c5c5c;fill-rule:nonzero;"/><path d="M2503.023,511.437c-11.999,0 -23.737,-0.913 -35.214,-2.739c-11.477,-1.826 -22.302,-4.63 -32.475,-8.412c-10.173,-3.782 -19.302,-8.412 -27.389,-13.89c-3.913,-2.869 -6.586,-6.13 -8.021,-9.782c-1.435,-3.652 -1.826,-7.238 -1.174,-10.76c0.652,-3.521 2.152,-6.586 4.5,-9.195c2.348,-2.608 5.217,-4.239 8.608,-4.891c3.391,-0.652 7.173,0.456 11.347,3.326c11.738,7.564 24.128,13.107 37.17,16.629c13.042,3.521 27.258,5.282 42.648,5.282c22.172,0 38.54,-3.978 49.104,-11.934c10.564,-7.956 15.846,-18.324 15.846,-31.106c0,-10.434 -3.782,-18.716 -11.347,-24.845c-7.564,-6.13 -20.215,-11.021 -37.953,-14.672l-41.865,-8.608c-24.78,-5.217 -43.235,-13.825 -55.364,-25.823c-12.129,-11.999 -18.194,-28.171 -18.194,-48.517c0,-12.26 2.543,-23.476 7.63,-33.649c5.086,-10.173 12.194,-18.976 21.324,-26.41c9.13,-7.434 20.085,-13.107 32.866,-17.02c12.781,-3.913 26.736,-5.869 41.865,-5.869c16.172,0 31.366,2.087 45.582,6.26c14.216,4.173 26.932,10.564 38.148,19.172c3.391,2.348 5.673,5.282 6.847,8.803c1.174,3.521 1.435,6.978 0.783,10.369c-0.652,3.391 -2.152,6.26 -4.5,8.608c-2.348,2.348 -5.347,3.717 -8.999,4.108c-3.652,0.391 -7.695,-0.848 -12.129,-3.717c-10.173,-6.782 -20.541,-11.673 -31.106,-14.672c-10.564,-3 -22.237,-4.5 -35.018,-4.5c-12.781,0 -23.932,1.956 -33.453,5.869c-9.521,3.913 -16.824,9.39 -21.911,16.433c-5.086,7.043 -7.63,15.39 -7.63,25.041c0,10.955 3.521,19.694 10.564,26.215c7.043,6.521 18.781,11.477 35.214,14.868l41.474,8.608c26.084,5.478 45.517,13.955 58.298,25.432c12.781,11.477 19.172,26.736 19.172,45.778c0,12.26 -2.478,23.28 -7.434,33.062c-4.956,9.782 -11.999,18.194 -21.128,25.237c-9.13,7.043 -20.15,12.455 -33.062,16.237c-12.912,3.782 -27.454,5.673 -43.626,5.673Z" style="fill:#5c5c5c;fill-rule:nonzero;"/><path d="M2681.831,510.654c-5.999,0 -10.629,-1.695 -13.89,-5.086c-3.261,-3.391 -4.891,-8.086 -4.891,-14.086l0,-242.976c0,-6.26 1.695,-11.021 5.086,-14.281c3.391,-3.261 7.956,-4.891 13.694,-4.891c5.478,0 9.716,0.978 12.716,2.934c3,1.956 5.804,5.412 8.412,10.369l102.511,191.329l-12.129,0l102.12,-191.329c2.608,-4.956 5.347,-8.412 8.217,-10.369c2.869,-1.956 7.043,-2.934 12.52,-2.934c5.739,0 10.173,1.63 13.303,4.891c3.13,3.261 4.695,8.021 4.695,14.281l0,242.976c0,5.999 -1.5,10.695 -4.5,14.086c-3,3.391 -7.499,5.086 -13.499,5.086c-5.999,0 -10.564,-1.695 -13.694,-5.086c-3.13,-3.391 -4.695,-8.086 -4.695,-14.086l0,-201.893l8.608,0l-90.773,167.853c-2.087,3.913 -4.304,6.782 -6.652,8.608c-2.348,1.826 -5.608,2.739 -9.782,2.739c-4.173,0 -7.564,-0.978 -10.173,-2.934c-2.608,-1.956 -4.956,-4.76 -7.043,-8.412l-91.556,-168.244l9.39,0l0,202.284c0,5.999 -1.5,10.695 -4.5,14.086c-3,3.391 -7.499,5.086 -13.499,5.086Z" style="fill:#5c5c5c;fill-rule:nonzero;"/><path d="M3027.318,510.654c-6.521,0 -11.542,-1.826 -15.064,-5.478c-3.521,-3.652 -5.282,-8.738 -5.282,-15.259l0,-239.845c0,-6.782 1.761,-11.934 5.282,-15.455c3.521,-3.521 8.543,-5.282 15.064,-5.282c6.521,0 11.542,1.761 15.064,5.282c3.521,3.521 5.282,8.673 5.282,15.455l0,239.845c0,6.521 -1.695,11.608 -5.086,15.259c-3.391,3.652 -8.477,5.478 -15.259,5.478Z" style="fill:#5c5c5c;fill-rule:nonzero;"/><path d="M3140.393,507.916c-6.521,0 -11.608,-1.826 -15.259,-5.478c-3.652,-3.652 -5.478,-8.738 -5.478,-15.259l0,-235.933c0,-6.782 1.761,-11.934 5.282,-15.455c3.521,-3.521 8.543,-5.282 15.064,-5.282c6.521,0 11.542,1.761 15.064,5.282c3.521,3.521 5.282,8.673 5.282,15.455l0,221.847l121.292,0c5.739,0 10.173,1.5 13.303,4.5c3.13,3 4.695,7.238 4.695,12.716c0,5.478 -1.565,9.782 -4.695,12.912c-3.13,3.13 -7.564,4.695 -13.303,4.695l-141.247,0Z" style="fill:#5c5c5c;fill-rule:nonzero;"/><path d="M3341.112,510.263c-5.999,0.261 -10.695,-1.304 -14.086,-4.695c-3.391,-3.391 -5.086,-7.695 -5.086,-12.912c0,-3.913 1.239,-7.434 3.717,-10.564c2.478,-3.13 6.065,-4.826 10.76,-5.086l12.129,-0.783c12.52,-1.043 22.041,-5.282 28.562,-12.716c6.521,-7.434 9.782,-17.803 9.782,-31.106l0,-182.721c0,-6.782 1.695,-11.868 5.086,-15.259c3.391,-3.391 8.347,-5.086 14.868,-5.086c6.521,0 11.542,1.695 15.064,5.086c3.521,3.391 5.282,8.477 5.282,15.259l0,182.721c0,15.651 -2.804,29.019 -8.412,40.105c-5.608,11.086 -13.759,19.759 -24.454,26.019c-10.695,6.26 -23.998,9.912 -39.909,10.955l-13.303,0.783Z" style="fill:#5c5c5c;fill-rule:nonzero;"/><path d="M3618.91,511.437c-26.084,0 -48.843,-5.804 -68.276,-17.411c-19.433,-11.608 -34.431,-28.041 -44.995,-49.299c-10.564,-21.259 -15.846,-46.234 -15.846,-74.927c0,-21.65 3,-41.148 8.999,-58.494c5.999,-17.346 14.607,-32.214 25.823,-44.604c11.216,-12.39 24.78,-21.846 40.692,-28.367c15.911,-6.521 33.779,-9.782 53.603,-9.782c26.345,0 49.169,5.739 68.471,17.216c19.302,11.477 34.236,27.78 44.8,48.908c10.564,21.128 15.846,46.039 15.846,74.732c0,21.65 -3,41.213 -8.999,58.69c-5.999,17.476 -14.672,32.475 -26.019,44.995c-11.347,12.52 -24.976,22.041 -40.887,28.562c-15.911,6.521 -33.649,9.782 -53.212,9.782Zm0,-35.214c18.259,0 33.844,-4.173 46.756,-12.52c12.912,-8.347 22.824,-20.476 29.736,-36.388c6.912,-15.911 10.369,-35.083 10.369,-57.516c0,-33.649 -7.564,-59.733 -22.693,-78.253c-15.129,-18.52 -36.518,-27.78 -64.167,-27.78c-18.259,0 -33.844,4.108 -46.756,12.325c-12.912,8.217 -22.824,20.281 -29.736,36.192c-6.912,15.911 -10.369,35.083 -10.369,57.516c0,33.388 7.63,59.472 22.889,78.253c15.259,18.781 36.583,28.171 63.972,28.171Zm35.214,-279.363c-6.782,0 -11.999,-1.826 -15.651,-5.478c-3.652,-3.652 -5.478,-8.869 -5.478,-15.651c0,-6.521 1.826,-11.542 5.478,-15.064c3.652,-3.521 8.869,-5.282 15.651,-5.282c6.521,0 11.608,1.761 15.259,5.282c3.652,3.521 5.478,8.543 5.478,15.064c0,6.782 -1.761,11.999 -5.282,15.651c-3.521,3.652 -8.673,5.478 -15.455,5.478Zm-70.819,0c-6.521,0 -11.673,-1.826 -15.455,-5.478c-3.782,-3.652 -5.673,-8.869 -5.673,-15.651c0,-6.521 1.891,-11.542 5.673,-15.064c3.782,-3.521 8.934,-5.282 15.455,-5.282c6.782,0 11.999,1.761 15.651,5.282c3.652,3.521 5.478,8.543 5.478,15.064c0,6.782 -1.826,11.999 -5.478,15.651c-3.652,3.652 -8.869,5.478 -15.651,5.478Z" style="fill:#5c5c5c;fill-rule:nonzero;"/><path d="M1200.502,885.479c-5.739,0 -10.499,-1.369 -14.281,-4.108c-3.782,-2.739 -6.847,-6.847 -9.195,-12.325l-105.25,-238.28c-2.087,-5.478 -2.608,-10.173 -1.565,-14.086c1.043,-3.913 3.195,-6.978 6.456,-9.195c3.261,-2.217 7.238,-3.326 11.934,-3.326c5.999,0 10.564,1.304 13.694,3.913c3.13,2.608 5.739,6.521 7.825,11.738l98.599,228.499l-14.477,0l97.816,-228.89c2.348,-4.956 5.152,-8.738 8.412,-11.347c3.261,-2.608 7.76,-3.913 13.499,-3.913c4.695,0 8.543,1.109 11.542,3.326c3,2.217 4.891,5.282 5.673,9.195c0.783,3.913 0,8.608 -2.348,14.086l-104.859,238.28c-2.348,5.478 -5.347,9.586 -8.999,12.325c-3.652,2.739 -8.477,4.108 -14.477,4.108Z" style="fill:#5c5c5c;fill-rule:nonzero;"/><path d="M1403.177,882.74c-7.043,0 -12.455,-1.891 -16.237,-5.673c-3.782,-3.782 -5.673,-9.195 -5.673,-16.237l0,-232.02c0,-7.043 1.891,-12.455 5.673,-16.237c3.782,-3.782 9.195,-5.673 16.237,-5.673l142.812,0c5.478,0 9.651,1.369 12.52,4.108c2.869,2.739 4.304,6.717 4.304,11.934c0,5.478 -1.435,9.651 -4.304,12.52c-2.869,2.869 -7.043,4.304 -12.52,4.304l-125.596,0l0,86.47l116.988,0c5.739,0 9.977,1.435 12.716,4.304c2.739,2.869 4.108,6.912 4.108,12.129c0,5.478 -1.369,9.586 -4.108,12.325c-2.739,2.739 -6.978,4.108 -12.716,4.108l-116.988,0l0,90.773l125.596,0c5.478,0 9.651,1.435 12.52,4.304c2.869,2.869 4.304,6.912 4.304,12.129c0,5.478 -1.435,9.586 -4.304,12.325c-2.869,2.739 -7.043,4.108 -12.52,4.108l-142.812,0Z" style="fill:#5c5c5c;fill-rule:nonzero;"/><path d="M1643.805,885.479c-6.521,0 -11.542,-1.826 -15.064,-5.478c-3.521,-3.652 -5.282,-8.738 -5.282,-15.259l0,-237.107c0,-6.782 1.826,-11.934 5.478,-15.455c3.652,-3.521 8.738,-5.282 15.259,-5.282l93.512,0c29.736,0 52.69,7.043 68.863,21.128c16.172,14.086 24.258,34.04 24.258,59.864c0,16.694 -3.652,31.04 -10.955,43.039c-7.304,11.999 -17.933,21.128 -31.888,27.389c-13.955,6.26 -30.714,9.39 -50.278,9.39l3.521,-5.478l10.173,0c10.434,0 19.498,2.608 27.193,7.825c7.695,5.217 14.672,13.564 20.933,25.041l33.649,62.602c2.608,4.695 3.847,9.195 3.717,13.499c-0.13,4.304 -1.695,7.76 -4.695,10.369c-3,2.608 -7.238,3.913 -12.716,3.913c-5.739,0 -10.369,-1.239 -13.89,-3.717c-3.521,-2.478 -6.717,-6.195 -9.586,-11.151l-41.083,-75.905c-5.478,-10.173 -11.738,-17.02 -18.781,-20.541c-7.043,-3.521 -16.303,-5.282 -27.78,-5.282l-44.213,0l0,95.86c0,6.521 -1.695,11.608 -5.086,15.259c-3.391,3.652 -8.477,5.478 -15.259,5.478Zm20.346,-147.116l66.906,0c19.824,0 34.823,-4.173 44.995,-12.52c10.173,-8.347 15.259,-20.737 15.259,-37.17c0,-16.172 -5.086,-28.432 -15.259,-36.779c-10.173,-8.347 -25.171,-12.52 -44.995,-12.52l-66.906,0l0,98.99Z" style="fill:#5c5c5c;fill-rule:nonzero;"/><path d="M1916.517,885.479c-6.521,0 -11.542,-1.826 -15.064,-5.478c-3.521,-3.652 -5.282,-8.738 -5.282,-15.259l0,-240.237c0,-6.782 1.761,-11.868 5.282,-15.259c3.521,-3.391 8.543,-5.086 15.064,-5.086c6.521,0 11.542,1.695 15.064,5.086c3.521,3.391 5.282,8.477 5.282,15.259l0,106.424l0.783,0l120.118,-116.206c3.913,-3.652 7.63,-6.325 11.151,-8.021c3.521,-1.695 7.499,-2.543 11.934,-2.543c5.999,0 10.369,1.5 13.107,4.5c2.739,3 3.847,6.586 3.326,10.76c-0.522,4.173 -2.739,8.217 -6.652,12.129l-124.814,118.945l0.783,-19.955l129.9,125.205c4.695,4.434 7.173,8.999 7.434,13.694c0.261,4.695 -1.174,8.543 -4.304,11.542c-3.13,3 -7.564,4.5 -13.303,4.5c-5.217,0 -9.39,-1.043 -12.52,-3.13c-3.13,-2.087 -6.782,-5.086 -10.955,-8.999l-125.205,-119.336l-0.783,0l0,110.728c0,6.521 -1.695,11.608 -5.086,15.259c-3.391,3.652 -8.477,5.478 -15.259,5.478Z" style="fill:#5c5c5c;fill-rule:nonzero;"/><path d="M2261.221,885.479c-6.521,0 -11.542,-1.826 -15.064,-5.478c-3.521,-3.652 -5.282,-8.738 -5.282,-15.259l0,-223.804l-82.948,0c-5.478,0 -9.782,-1.5 -12.912,-4.5c-3.13,-3 -4.695,-7.238 -4.695,-12.716c0,-5.478 1.565,-9.651 4.695,-12.52c3.13,-2.869 7.434,-4.304 12.912,-4.304l206.197,0c5.739,0 10.173,1.435 13.303,4.304c3.13,2.869 4.695,7.043 4.695,12.52c0,5.478 -1.565,9.716 -4.695,12.716c-3.13,3 -7.564,4.5 -13.303,4.5l-82.948,0l0,223.804c0,6.521 -1.63,11.608 -4.891,15.259c-3.261,3.652 -8.282,5.478 -15.064,5.478Z" style="fill:#5c5c5c;fill-rule:nonzero;"/><path d="M2515.152,885.479c-6.521,0 -11.542,-1.826 -15.064,-5.478c-3.521,-3.652 -5.282,-8.869 -5.282,-15.651l0,-124.031l8.999,25.823l-96.642,-134.204c-2.869,-3.913 -4.173,-8.021 -3.913,-12.325c0.261,-4.304 2.022,-7.956 5.282,-10.955c3.261,-3 7.63,-4.5 13.107,-4.5c4.173,0 8.021,1.043 11.542,3.13c3.521,2.087 6.847,5.347 9.977,9.782l77.47,107.598l-9.39,0l77.47,-107.598c3.391,-4.695 6.652,-8.021 9.782,-9.977c3.13,-1.956 7.043,-2.934 11.738,-2.934c5.478,0 9.716,1.369 12.716,4.108c3,2.739 4.565,6.26 4.695,10.564c0.13,4.304 -1.5,8.803 -4.891,13.499l-95.86,133.813l8.217,-25.823l0,124.031c0,14.086 -6.652,21.128 -19.955,21.128Z" style="fill:#5c5c5c;fill-rule:nonzero;"/><path d="M2777.691,886.261c-29.997,0 -55.299,-5.673 -75.905,-17.02c-20.607,-11.347 -36.192,-27.584 -46.756,-48.712c-10.564,-21.128 -15.846,-46.3 -15.846,-75.514c0,-21.911 3.065,-41.539 9.195,-58.885c6.13,-17.346 14.998,-32.214 26.606,-44.604c11.608,-12.39 25.823,-21.846 42.648,-28.367c16.824,-6.521 35.931,-9.782 57.32,-9.782c15.651,0 31.04,2.022 46.169,6.065c15.129,4.043 28.954,10.629 41.474,19.759c3.652,2.608 5.999,5.608 7.043,8.999c1.043,3.391 1.109,6.847 0.196,10.369c-0.913,3.521 -2.608,6.586 -5.086,9.195c-2.478,2.608 -5.478,4.173 -8.999,4.695c-3.521,0.522 -7.369,-0.522 -11.542,-3.13c-10.173,-7.043 -20.867,-12.194 -32.084,-15.455c-11.216,-3.261 -23.606,-4.891 -37.17,-4.891c-20.346,0 -37.496,4.173 -51.451,12.52c-13.955,8.347 -24.454,20.411 -31.497,36.192c-7.043,15.781 -10.564,34.888 -10.564,57.32c0,34.692 8.217,61.037 24.65,79.036c16.433,17.998 40.822,26.997 73.167,26.997c11.738,0 23.28,-1.109 34.627,-3.326c11.347,-2.217 22.237,-5.412 32.671,-9.586l-8.217,20.346l0,-91.165l-50.473,0c-5.217,0 -9.325,-1.369 -12.325,-4.108c-3,-2.739 -4.5,-6.586 -4.5,-11.542c0,-4.956 1.5,-8.673 4.5,-11.151c3,-2.478 7.108,-3.717 12.325,-3.717l67.689,0c5.478,0 9.651,1.435 12.52,4.304c2.869,2.869 4.304,7.043 4.304,12.52l0,98.599c0,4.695 -0.848,8.673 -2.543,11.934c-1.695,3.261 -4.5,5.673 -8.412,7.238c-11.216,4.434 -24.389,8.021 -39.518,10.76c-15.129,2.739 -29.867,4.108 -44.213,4.108Z" style="fill:#5c5c5c;fill-rule:nonzero;"/><path d="M2956.499,882.74c-7.043,0 -12.455,-1.891 -16.237,-5.673c-3.782,-3.782 -5.673,-9.195 -5.673,-16.237l0,-232.02c0,-7.043 1.891,-12.455 5.673,-16.237c3.782,-3.782 9.195,-5.673 16.237,-5.673l142.812,0c5.478,0 9.651,1.369 12.52,4.108c2.869,2.739 4.304,6.717 4.304,11.934c0,5.478 -1.435,9.651 -4.304,12.52c-2.869,2.869 -7.043,4.304 -12.52,4.304l-125.596,0l0,86.47l116.988,0c5.739,0 9.977,1.435 12.716,4.304c2.739,2.869 4.108,6.912 4.108,12.129c0,5.478 -1.369,9.586 -4.108,12.325c-2.739,2.739 -6.978,4.108 -12.716,4.108l-116.988,0l0,90.773l125.596,0c5.478,0 9.651,1.435 12.52,4.304c2.869,2.869 4.304,6.912 4.304,12.129c0,5.478 -1.435,9.586 -4.304,12.325c-2.869,2.739 -7.043,4.108 -12.52,4.108l-142.812,0Z" style="fill:#5c5c5c;fill-rule:nonzero;"/><path d="M3260.903,885.479c-6.521,0 -11.542,-1.826 -15.064,-5.478c-3.521,-3.652 -5.282,-8.738 -5.282,-15.259l0,-223.804l-82.948,0c-5.478,0 -9.782,-1.5 -12.912,-4.5c-3.13,-3 -4.695,-7.238 -4.695,-12.716c0,-5.478 1.565,-9.651 4.695,-12.52c3.13,-2.869 7.434,-4.304 12.912,-4.304l206.197,0c5.739,0 10.173,1.435 13.303,4.304c3.13,2.869 4.695,7.043 4.695,12.52c0,5.478 -1.565,9.716 -4.695,12.716c-3.13,3 -7.564,4.5 -13.303,4.5l-82.948,0l0,223.804c0,6.521 -1.63,11.608 -4.891,15.259c-3.261,3.652 -8.282,5.478 -15.064,5.478Z" style="fill:#5c5c5c;fill-rule:nonzero;"/></g></g><defs><linearGradient id="_Linear1" x1="0" y1="0" x2="1" y2="0" gradientUnits="userSpaceOnUse" gradientTransform="matrix(893.653558,-358.533381,358.533381,893.653558,219.70718,648.71092)"><stop offset="0" style="stop-color:#6b971f;stop-opacity:1"/><stop offset="1" style="stop-color:#8dba39;stop-opacity:1"/></linearGradient></defs></svg>